<svg width="16" height="18" viewBox="0 0 16 18" fill="none" xmlns="http://www.w3.org/2000/svg">
<path d="M10.5 1.08337V4.41671M5.50002 1.08337V4.41671M5.50002 8.58337H0.931132M0.931132 8.58337C0.921375 8.85074 0.916687 9.12841 0.916687 9.41671C0.916687 13.5079 1.86747 15.4598 4.66669 16.1701M0.931132 8.58337C1.10469 3.82735 2.87165 2.33337 8.00002 2.33337C12.4733 2.33337 14.389 3.47003 14.9207 6.91671M13 9.83336C13 10.7538 12.2538 11.5 11.3334 11.5C10.4129 11.5 9.66669 10.7538 9.66669 9.83336C9.66669 8.91289 10.4129 8.1667 11.3334 8.1667C12.2538 8.1667 13 8.91289 13 9.83336ZM9.04169 16.5H13.625C14.2003 16.5 14.6667 16.0337 14.6667 15.4584C14.6667 13.7581 12.1667 13.7917 11.3334 13.7917C10.5 13.7917 8.00002 13.7581 8.00002 15.4584C8.00002 16.0337 8.46639 16.5 9.04169 16.5Z" stroke="white" stroke-width="1.5" stroke-linecap="round" stroke-linejoin="round"/>
</svg>
