<svg width="22" height="22" viewBox="0 0 22 22" fill="none" xmlns="http://www.w3.org/2000/svg">
<path d="M9.06587 5.34421V7.17754M12.9342 5.34421V7.17754M6.90254 9.29504H15.0975M11 20.1667C16.0628 20.1667 20.1667 16.0628 20.1667 11C20.1667 5.93729 16.0628 1.83337 11 1.83337C5.93729 1.83337 1.83337 5.93729 1.83337 11C1.83337 16.0628 5.93729 20.1667 11 20.1667Z" stroke="white" stroke-width="1.5" stroke-miterlimit="10" stroke-linecap="round" stroke-linejoin="round"/>
<path d="M12.375 16.1975H9.62504C7.33337 16.1975 5.95837 14.5475 5.95837 12.5308V9.7808C5.95837 7.76414 7.33337 6.11414 9.62504 6.11414H12.375C14.6667 6.11414 16.0417 7.76414 16.0417 9.7808V12.5308C16.0417 14.5475 14.6667 16.1975 12.375 16.1975Z" stroke="white" stroke-width="1.5" stroke-miterlimit="10" stroke-linecap="round" stroke-linejoin="round"/>
</svg>
