<svg width="24" height="24" viewBox="0 0 24 24" fill="none" xmlns="http://www.w3.org/2000/svg">
<path d="M11.9817 8.56897C10.0937 8.56897 8.56885 10.094 8.56885 11.9819C8.56885 13.8699 10.0939 15.3947 11.9817 15.3947C13.8697 15.3947 15.3946 13.8697 15.3946 11.9819C15.3946 10.0938 13.8697 8.56897 11.9817 8.56897ZM11.9817 14.6686C10.493 14.6686 9.29493 13.4705 9.29493 11.9818C9.29493 10.4932 10.4931 9.29502 11.9817 9.29502C13.4703 9.29502 14.6685 10.4932 14.6685 11.9818C14.6685 13.4705 13.4703 14.6686 11.9817 14.6686Z" fill="#BABCC0"/>
<path d="M11.6191 3.70343V6.78962L10.8204 5.99087C10.6752 5.84569 10.4573 5.84569 10.312 5.99087C10.1668 6.13606 10.1668 6.35391 10.312 6.49926L11.728 7.91525C11.8007 7.98792 11.8732 8.02409 11.9822 8.02409C12.091 8.02409 12.1637 7.98775 12.2364 7.91525L13.6887 6.46293C13.8339 6.31775 13.8339 6.09989 13.6887 5.95454C13.5435 5.80936 13.3256 5.80936 13.1803 5.95454L12.3452 6.78962V3.70343C13.2167 3.52191 13.8702 2.7595 13.8702 1.85172C13.8702 0.83508 12.9988 0 11.9822 0C10.9656 0 10.0942 0.835079 10.0942 1.88804C10.0942 2.79583 10.7477 3.52192 11.6192 3.70343H11.6191ZM11.9822 0.726269C12.5994 0.726269 13.144 1.23465 13.144 1.88809C13.144 2.50533 12.6356 3.04991 11.9822 3.04991C11.3286 3.04991 10.8204 2.54152 10.8204 1.88809C10.8204 1.23452 11.3649 0.726269 11.9822 0.726269Z" fill="#BABCC0"/>
<path d="M12.3448 20.2605V17.1743L13.1799 18.0094C13.3251 18.1546 13.543 18.1546 13.6883 18.0094C13.8335 17.8642 13.8335 17.6464 13.6883 17.501L12.236 16.0487C12.0908 15.9035 11.873 15.9035 11.7276 16.0487L10.3116 17.4647C10.1665 17.6099 10.1665 17.8277 10.3116 17.9731C10.4568 18.1183 10.6747 18.1183 10.82 17.9731L11.6188 17.1743V20.2605C10.7473 20.442 10.0938 21.2045 10.0938 22.1122C10.0938 23.1289 10.9288 24.0003 11.9818 24.0003C13.0347 24.0003 13.8698 23.1652 13.8698 22.1122C13.8698 21.1681 13.2162 20.442 12.3448 20.2605H12.3448ZM11.9818 23.2377C11.3646 23.2377 10.82 22.7293 10.82 22.0759C10.82 21.4586 11.3284 20.914 11.9818 20.914C12.6354 20.914 13.1436 21.4224 13.1436 22.0759C13.1436 22.7294 12.599 23.2377 11.9818 23.2377Z" fill="#BABCC0"/>
<path d="M17.5731 5.8822L15.3947 8.06061V6.93499C15.3947 6.71713 15.2495 6.57195 15.0316 6.57195C14.8138 6.57195 14.6686 6.71713 14.6686 6.93499V8.93189C14.6686 9.04073 14.7049 9.11341 14.7774 9.18608C14.8501 9.25876 14.9226 9.29493 15.0316 9.29493H17.1012C17.319 9.29493 17.4642 9.14974 17.4642 8.93189C17.4642 8.71403 17.319 8.56884 17.1012 8.56884H15.9393L18.1177 6.39043C18.8438 6.86249 19.8243 6.78981 20.4778 6.17257C21.2039 5.44648 21.2039 4.2482 20.4778 3.52211C19.7517 2.79602 18.5535 2.79602 17.8274 3.52211C17.1736 4.13935 17.1009 5.15598 17.573 5.88221L17.5731 5.8822ZM19.933 4.03048C20.3687 4.4662 20.3687 5.1923 19.933 5.66436C19.4972 6.10008 18.7711 6.10008 18.2991 5.66436C17.8634 5.22864 17.8634 4.50254 18.2991 4.03048C18.7711 3.55843 19.4972 3.55843 19.933 4.03048Z" fill="#BABCC0"/>
<path d="M6.39078 18.0816L8.56918 15.9032V17.065C8.56918 17.2829 8.71436 17.4281 8.93222 17.4281C9.15007 17.4281 9.29526 17.2829 9.29526 17.065V14.9955C9.29526 14.814 9.15007 14.6324 8.93222 14.6324H6.93533C6.71748 14.6324 6.57229 14.7776 6.57229 14.9955C6.57229 15.2133 6.71748 15.3585 6.93533 15.3585H8.06095L5.88255 17.5369C5.15647 17.0649 4.17603 17.1376 3.52247 17.7548C2.79638 18.4809 2.79638 19.6792 3.52247 20.4053C4.24856 21.1314 5.44683 21.1314 6.17292 20.4053C6.79015 19.8245 6.86281 18.8079 6.39077 18.0817L6.39078 18.0816ZM4.03088 19.9334C3.59516 19.4976 3.59516 18.7715 4.03088 18.2995C4.46659 17.8638 5.19269 17.8638 5.66474 18.2995C6.10045 18.7352 6.10045 19.4613 5.66474 19.9334C5.19269 20.4054 4.4666 20.4054 4.03088 19.9334Z" fill="#BABCC0"/>
<path d="M20.2601 11.6186H17.1739L17.9727 10.8198C18.1178 10.6747 18.1178 10.4568 17.9727 10.3115C17.8275 10.1663 17.6096 10.1663 17.4643 10.3115L16.0483 11.7274C15.9756 11.8001 15.9395 11.8726 15.9395 11.9816C15.9395 12.0905 15.9758 12.1632 16.0483 12.2358L17.5006 13.6882C17.6458 13.8333 17.8636 13.8333 18.009 13.6882C18.1542 13.543 18.1542 13.3251 18.009 13.1798L17.1739 12.3447H20.2601C20.4416 13.2161 21.204 13.8697 22.1118 13.8697C23.1284 13.8697 23.9998 13.0346 23.9998 11.9817C23.9998 10.9287 23.1647 10.0936 22.1118 10.0936C21.1677 10.0936 20.4416 10.7472 20.2601 11.6186V11.6186ZM23.2372 11.9816C23.2372 12.5989 22.7288 13.1435 22.0754 13.1435C21.4582 13.1435 20.9136 12.6351 20.9136 11.9816C20.9136 11.3281 21.422 10.8198 22.0754 10.8198C22.729 10.8198 23.2372 11.3644 23.2372 11.9816Z" fill="#BABCC0"/>
<path d="M3.7034 12.3443H6.78957L5.9545 13.1793C5.80932 13.3245 5.80932 13.5424 5.9545 13.6877C6.09968 13.8329 6.31754 13.8329 6.46288 13.6877L7.91519 12.2354C8.06037 12.0902 8.06037 11.8724 7.91519 11.727L6.49921 10.311C6.35403 10.1658 6.13617 10.1658 5.99083 10.311C5.84565 10.4562 5.84565 10.6741 5.99083 10.8194L6.78957 11.6182H3.7034C3.52188 10.7467 2.75948 10.0931 1.8517 10.0931C0.835074 10.0931 0 10.9646 0 11.9812C0 12.9978 0.835073 13.8692 1.88803 13.8692C2.79581 13.8692 3.52189 13.2157 3.7034 12.3442V12.3443ZM0.726264 11.9812C0.726264 11.364 1.23464 10.8194 1.88807 10.8194C2.50531 10.8194 3.04989 11.3278 3.04989 11.9812C3.04989 12.5984 2.54151 13.143 1.88807 13.143C1.23451 13.143 0.726264 12.5984 0.726264 11.9812Z" fill="#BABCC0"/>
<path d="M18.0814 17.5733L15.903 15.3949H17.0286C17.2465 15.3949 17.3917 15.2497 17.3917 15.0319C17.3917 14.814 17.2465 14.6688 17.0286 14.6688H15.0317C14.9229 14.6688 14.8502 14.7052 14.7775 14.7777C14.7049 14.8503 14.6687 14.9229 14.6687 15.0319V17.1014C14.6687 17.3193 14.8139 17.4645 15.0317 17.4645C15.2496 17.4645 15.3948 17.3193 15.3948 17.1014V15.9396L17.5732 18.118C17.1011 18.8441 17.1738 19.8245 17.791 20.4781C18.5171 21.2042 19.7154 21.2042 20.4415 20.4781C21.1676 19.752 21.1676 18.5537 20.4415 17.8276C19.8242 17.1739 18.8076 17.1012 18.0814 17.5733L18.0814 17.5733ZM19.9331 19.9332C19.4974 20.369 18.7713 20.369 18.2992 19.9332C17.8635 19.4975 17.8635 18.7714 18.2992 18.2994C18.735 17.8636 19.4611 17.8636 19.9331 18.2994C20.4052 18.7714 20.4052 19.4975 19.9331 19.9332Z" fill="#BABCC0"/>
<path d="M5.88209 6.39069L8.06049 8.5691H6.89868C6.68082 8.5691 6.53564 8.71428 6.53564 8.93214C6.53564 9.15 6.68082 9.29518 6.89868 9.29518H8.96822C9.14974 9.29518 9.33126 9.15 9.33126 8.93214V6.93524C9.33126 6.71738 9.18608 6.5722 8.96822 6.5722C8.75036 6.5722 8.60518 6.71738 8.60518 6.93524V8.06086L6.42679 5.88245C6.89884 5.15636 6.82616 4.17592 6.20893 3.52235C5.48284 2.79626 4.28457 2.79626 3.55848 3.52235C2.83239 4.24845 2.83239 5.44673 3.55848 6.17282C4.13921 6.79006 5.1558 6.86272 5.88206 6.39068L5.88209 6.39069ZM4.03039 4.03076C4.46611 3.59505 5.1922 3.59505 5.66426 4.03076C6.09997 4.46648 6.09997 5.19258 5.66426 5.66464C5.22854 6.10036 4.50244 6.10036 4.03039 5.66464C3.55834 5.19258 3.55834 4.46649 4.03039 4.03076Z" fill="#BABCC0"/>
</svg>
