<svg width="18" height="18" viewBox="0 0 18 18" fill="none" xmlns="http://www.w3.org/2000/svg">
<path d="M4.625 1.5C2.23529 1.5 1.5 2.23529 1.5 4.625C1.5 7.01471 2.23529 7.75 4.625 7.75C7.01471 7.75 7.75 7.01471 7.75 4.625C7.75 2.23529 7.01471 1.5 4.625 1.5Z" stroke="#B0B2B6" stroke-width="1.5" stroke-linecap="round" stroke-linejoin="round"/>
<path d="M4.625 10.25C2.23529 10.25 1.5 10.9853 1.5 13.375C1.5 15.7647 2.23529 16.5 4.625 16.5C7.01471 16.5 7.75 15.7647 7.75 13.375C7.75 10.9853 7.01471 10.25 4.625 10.25Z" stroke="#B0B2B6" stroke-width="1.5" stroke-linecap="round" stroke-linejoin="round"/>
<path d="M13.375 10.25C10.9853 10.25 10.25 10.9853 10.25 13.375C10.25 15.7647 10.9853 16.5 13.375 16.5C15.7647 16.5 16.5 15.7647 16.5 13.375C16.5 10.9853 15.7647 10.25 13.375 10.25Z" stroke="#B0B2B6" stroke-width="1.5" stroke-linecap="round" stroke-linejoin="round"/>
<path d="M13.375 1.5C10.9853 1.5 10.25 2.23529 10.25 4.625C10.25 7.01471 10.9853 7.75 13.375 7.75C15.7647 7.75 16.5 7.01471 16.5 4.625C16.5 2.23529 15.7647 1.5 13.375 1.5Z" stroke="#B0B2B6" stroke-width="1.5" stroke-linecap="round" stroke-linejoin="round"/>
</svg>
