<svg width="25" height="24" viewBox="0 0 25 24" fill="none" xmlns="http://www.w3.org/2000/svg">
<path d="M19.7034 18.0002H5.18486C4.61212 18.0002 4.14783 18.448 4.14783 19.0002C4.14783 19.5525 4.61212 20.0002 5.18486 20.0002H19.7034C20.2761 20.0002 20.7404 19.5525 20.7404 19.0002C20.7404 18.448 20.2761 18.0002 19.7034 18.0002Z" fill="#3948CD"/>
<path d="M4.14783 17.0001V19.0001C4.14783 19.5524 4.61212 20.0001 5.18486 20.0001C5.7576 20.0001 6.2219 19.5524 6.2219 19.0001V17.0001C6.2219 16.4478 5.7576 16.0001 5.18486 16.0001C4.61212 16.0001 4.14783 16.4478 4.14783 17.0001Z" fill="#3948CD"/>
<path d="M18.6667 17.0001V19.0001C18.6667 19.5524 19.131 20.0001 19.7038 20.0001C20.2765 20.0001 20.7408 19.5524 20.7408 19.0001V17.0001C20.7408 16.4478 20.2765 16.0001 19.7038 16.0001C19.131 16.0001 18.6667 16.4478 18.6667 17.0001Z" fill="#3948CD"/>
<path d="M12.4441 15C12.2291 15.0016 12.0189 14.9387 11.8426 14.82L7.69447 12C7.4709 11.8471 7.31921 11.615 7.27257 11.3545C7.22593 11.0941 7.28814 10.8264 7.44558 10.61C7.52417 10.5019 7.6242 10.4098 7.7399 10.3391C7.85559 10.2684 7.98465 10.2206 8.11964 10.1982C8.25462 10.1759 8.39285 10.1796 8.52635 10.2091C8.65985 10.2386 8.78597 10.2933 8.89743 10.37L12.4441 12.76L15.97 10.2C16.1901 10.0409 16.4666 9.97255 16.7389 10.0101C17.0112 10.0476 17.2569 10.1878 17.4219 10.4C17.5869 10.6122 17.6578 10.8789 17.6189 11.1414C17.58 11.404 17.4345 11.6409 17.2145 11.8L13.0663 14.8C12.8868 14.9298 12.6685 15 12.4441 15Z" fill="#3948CD"/>
<path d="M12.4446 13.0002C12.1696 13.0002 11.9058 12.8949 11.7113 12.7073C11.5169 12.5198 11.4076 12.2655 11.4076 12.0002V4.00024C11.4076 3.73503 11.5169 3.48067 11.7113 3.29314C11.9058 3.1056 12.1696 3.00024 12.4446 3.00024C12.7197 3.00024 12.9834 3.1056 13.1779 3.29314C13.3724 3.48067 13.4817 3.73503 13.4817 4.00024V12.0002C13.4817 12.2655 13.3724 12.5198 13.1779 12.7073C12.9834 12.8949 12.7197 13.0002 12.4446 13.0002Z" fill="#3948CD"/>
</svg>
