<svg width="18" height="14" viewBox="0 0 18 14" fill="none" xmlns="http://www.w3.org/2000/svg">
<path d="M16.7583 4.49996H10.6813C9.29249 4.49996 8.16665 5.61925 8.16665 6.99996C8.16665 8.38067 9.29249 9.49996 10.6813 9.49996H16.7583M10.6666 6.99996V7.00829M1.96294 1.76848C2.40276 1.46755 5.48146 1.16663 8.99998 1.16663C12.5185 1.16663 15.5972 1.46755 16.037 1.76848C16.2963 1.94588 16.5556 3.16752 16.7248 4.29167C16.7673 4.57408 16.8041 4.87663 16.8338 5.19445C16.8864 5.75747 16.9166 6.36838 16.9166 7C16.9166 7.98817 16.8425 8.92563 16.7248 9.70834C16.5556 10.8325 16.2963 12.054 16.037 12.2314C15.5972 12.5324 12.5185 12.8333 8.99998 12.8333C5.48146 12.8333 2.40276 12.5324 1.96294 12.2314C1.52313 11.9305 1.08331 9.40741 1.08331 7C1.08331 6.36838 1.11359 5.75747 1.1662 5.19445C1.3141 3.61154 1.63852 1.99045 1.96294 1.76848Z" stroke="#B0B2B6" stroke-width="1.5" stroke-linecap="round" stroke-linejoin="round"/>
</svg>
