<svg width="24" height="24" viewBox="0 0 24 24" fill="none" xmlns="http://www.w3.org/2000/svg">
<path d="M10.7521 16.86V18.89C10.7521 20.61 9.15205 22 7.18205 22C5.21205 22 3.60205 20.61 3.60205 18.89V16.86C3.60205 18.58 5.20205 19.8 7.18205 19.8C9.15205 19.8 10.7521 18.57 10.7521 16.86Z" stroke="white" stroke-width="1.5" stroke-linecap="round" stroke-linejoin="round"/>
<path d="M10.75 14.11C10.75 14.61 10.61 15.07 10.37 15.47C9.77997 16.44 8.56997 17.05 7.16997 17.05C5.76997 17.05 4.55997 16.43 3.96997 15.47C3.72997 15.07 3.58997 14.61 3.58997 14.11C3.58997 13.25 3.98997 12.48 4.62997 11.92C5.27997 11.35 6.16997 11.01 7.15997 11.01C8.14997 11.01 9.03997 11.36 9.68997 11.92C10.35 12.47 10.75 13.25 10.75 14.11Z" stroke="white" stroke-width="1.5" stroke-linecap="round" stroke-linejoin="round"/>
<path d="M10.7521 14.11V16.86C10.7521 18.58 9.15205 19.8 7.18205 19.8C5.21205 19.8 3.60205 18.57 3.60205 16.86V14.11C3.60205 12.39 5.20205 11 7.18205 11C8.17205 11 9.06205 11.35 9.71205 11.91C10.3521 12.47 10.7521 13.25 10.7521 14.11ZM22.0001 10.97V13.03C22.0001 13.58 21.5601 14.03 21.0001 14.05H19.0401C17.9601 14.05 16.97 13.26 16.88 12.18C16.82 11.55 17.0601 10.96 17.4801 10.55C17.8501 10.17 18.3601 9.95001 18.9201 9.95001H21.0001C21.5601 9.97001 22.0001 10.42 22.0001 10.97Z" stroke="white" stroke-width="1.5" stroke-linecap="round" stroke-linejoin="round"/>
<path d="M2 10.5V8.5C2 5.78 3.64 3.88 6.19 3.56C6.45 3.52 6.72 3.5 7 3.5H16C16.26 3.5 16.51 3.51 16.75 3.55C19.33 3.85 21 5.76 21 8.5V9.95H18.92C18.36 9.95 17.85 10.17 17.48 10.55C17.06 10.96 16.82 11.55 16.88 12.18C16.97 13.26 17.96 14.05 19.04 14.05H21V15.5C21 18.5 19 20.5 16 20.5H13.5" stroke="white" stroke-width="1.5" stroke-linecap="round" stroke-linejoin="round"/>
</svg>
