<svg width="18" height="16" viewBox="0 0 18 16" fill="none" xmlns="http://www.w3.org/2000/svg">
<path fill-rule="evenodd" clip-rule="evenodd" d="M14.5 14.0765C14.1734 14.1738 13.8266 14.1738 13.5 14.0765V12.8387L14 12.3242L14.5 12.8387V14.0765ZM16.2765 4.21811L10.171 1.07671C9.80635 0.893384 9.40585 0.798096 9 0.798096C8.59415 0.798096 8.19365 0.893384 7.829 1.07671L1.723 4.21811C1.50529 4.3296 1.32221 4.50151 1.19445 4.71443C1.06669 4.92735 0.999337 5.17279 1 5.42302C1 5.93595 1.2775 6.39744 1.7235 6.62741L3.5 7.54164V10.5678C3.5 12.2985 5.916 13.6547 9 13.6547C9.9265 13.6547 10.839 13.5286 11.639 13.2904L11.361 12.3016C10.65 12.5136 9.8335 12.6257 9 12.6257C6.348 12.6257 4.5 11.5407 4.5 10.5678V8.05611L7.829 9.76933C8.19285 9.95557 8.59362 10.0528 9 10.0533C9.4045 10.0533 9.809 9.95454 10.171 9.76881L12.2235 8.71259L11.7765 7.79219L9.7235 8.84841C9.49827 8.96191 9.25079 9.02091 9 9.02091C8.74921 9.02091 8.50174 8.96191 8.2765 8.84841L2.1715 5.70701C2.11992 5.68097 2.07649 5.64054 2.04617 5.59032C2.01584 5.54011 1.99985 5.48213 2 5.42302C2 5.3016 2.0655 5.19253 2.171 5.13851L8.2765 1.99711C8.50174 1.88361 8.74921 1.82461 9 1.82461C9.25079 1.82461 9.49827 1.88361 9.7235 1.99711L15.8285 5.13851C15.8802 5.16459 15.9236 5.2051 15.954 5.25541C15.9843 5.30573 16.0002 5.36381 16 5.42302C16.0001 5.48207 15.9842 5.53998 15.954 5.59018C15.9237 5.64037 15.8804 5.68085 15.829 5.70701L13.966 6.66599L9.165 4.93735L8.835 5.90868L13.5 7.58897V11.3838L12.5 12.4127V14.7443L12.7765 14.8863C12.8385 14.9182 13.3995 15.1981 14 15.1981C14.6005 15.1981 15.1615 14.9182 15.2235 14.8863L15.5 14.7443V12.4127L14.5 11.3838V7.54164L16.277 6.62741C16.4946 6.51604 16.6776 6.3443 16.8054 6.13157C16.9331 5.91884 17.0005 5.6736 17 5.42353C17 4.91008 16.7225 4.44808 16.2765 4.21811Z" fill="#37D334" stroke="#37D334" stroke-width="0.25"/>
</svg>
