<svg width="39" height="37" viewBox="0 0 39 37" fill="none" xmlns="http://www.w3.org/2000/svg">
<path d="M13 3.08337V7.70837M26 3.08337V7.70837M5.6875 14.0138H33.3125M30.9887 31.003L27.5438 27.75M30.9562 27.7809L27.5113 31.0492M29.25 35.4584C30.9739 35.4584 32.6272 34.8087 33.8462 33.6522C35.0652 32.4957 35.75 30.9272 35.75 29.2917C35.75 27.6562 35.0652 26.0877 33.8462 24.9312C32.6272 23.7747 30.9739 23.125 29.25 23.125C27.5261 23.125 25.8728 23.7747 24.6538 24.9312C23.4348 26.0877 22.75 27.6562 22.75 29.2917C22.75 30.9272 23.4348 32.4957 24.6538 33.6522C25.8728 34.8087 27.5261 35.4584 29.25 35.4584Z" stroke="white" stroke-width="1.5" stroke-miterlimit="10" stroke-linecap="round" stroke-linejoin="round"/>
<path d="M34.125 13.1042V25.2217C32.9387 23.9421 31.2 23.125 29.25 23.125C25.6587 23.125 22.75 25.8846 22.75 29.2917C22.75 30.448 23.0912 31.5425 23.6925 32.4675C24.0337 33.0225 24.4725 33.5159 24.9762 33.9167H13C7.3125 33.9167 4.875 30.8334 4.875 26.2084V13.1042C4.875 8.47921 7.3125 5.39587 13 5.39587H26C31.6875 5.39587 34.125 8.47921 34.125 13.1042Z" stroke="white" stroke-width="1.5" stroke-miterlimit="10" stroke-linecap="round" stroke-linejoin="round"/>
<path d="M19.4919 21.1208H19.5082M13.4778 21.1208H13.494M13.4778 25.7459H13.494" stroke="white" stroke-width="2" stroke-linecap="round" stroke-linejoin="round"/>
</svg>
