<svg width="22" height="22" viewBox="0 0 22 22" fill="none" xmlns="http://www.w3.org/2000/svg">
<path d="M6.60003 0.880005C5.6341 0.880005 4.84003 1.67408 4.84003 2.64001V14.96C4.84003 15.9259 5.6341 16.72 6.60003 16.72H16.632C16.9085 16.72 17.1601 16.4685 17.1601 16.192V3.87197C17.1601 3.57954 16.9246 3.34394 16.632 3.34394C16.2329 3.34394 15.9281 3.03911 15.9281 2.64001C15.9281 2.2409 16.2329 1.93607 16.632 1.93607C16.9246 1.93607 17.1601 1.70048 17.1601 1.40804C17.1601 1.11548 16.9246 0.880005 16.632 0.880005H6.60003ZM6.60003 1.93607H15.026C14.9294 2.15312 14.872 2.3887 14.872 2.64001C14.872 2.89131 14.9294 3.1269 15.026 3.34394H6.60003C6.20092 3.34394 5.89609 3.03911 5.89609 2.64001C5.89609 2.2409 6.20092 1.93607 6.60003 1.93607ZM5.89609 4.25147C6.11228 4.34723 6.34995 4.40002 6.60003 4.40002H10.472V8.44803C10.4735 8.6393 10.5882 8.82775 10.7581 8.91553C10.928 9.00331 11.1458 8.98661 11.3025 8.87698L12.76 7.85394L14.2175 8.87698C14.3743 8.98661 14.5921 9.0033 14.762 8.91553C14.9319 8.82775 15.0466 8.6393 15.0481 8.44803V4.36703C15.1038 4.38691 15.1613 4.40005 15.224 4.40005H16.104V15.6641H6.59999C6.20088 15.6641 5.89606 15.3592 5.89606 14.9601L5.89609 4.25147ZM11.5281 4.40002H13.992V7.43056L13.0626 6.78149C12.8865 6.65848 12.6336 6.65848 12.4576 6.78149L11.5281 7.43056V4.40002ZM8.88809 10.384C8.59553 10.384 8.36006 10.6196 8.36006 10.9121C8.36006 11.2046 8.59553 11.4401 8.88809 11.4401H14.5201C14.8126 11.4401 15.0481 11.2046 15.0481 10.9121C15.0481 10.6196 14.8127 10.384 14.5201 10.384H8.88809ZM8.88809 12.8481C8.59553 12.8481 8.36006 13.0836 8.36006 13.3761C8.36006 13.6686 8.59553 13.904 8.88809 13.904H14.5201C14.8126 13.904 15.0481 13.6686 15.0481 13.3761C15.0481 13.0836 14.8127 12.8481 14.5201 12.8481H8.88809Z" fill="#BABCC0"/>
</svg>
