<svg width="19" height="19" viewBox="0 0 19 19" fill="none" xmlns="http://www.w3.org/2000/svg">
<path d="M9.21586 0C6.77163 0 4.42738 0.970971 2.69918 2.69918C0.970971 4.42738 0 6.7717 0 9.21586C0 11.66 0.970971 14.0043 2.69918 15.7325C4.42738 17.4608 6.7717 18.4317 9.21586 18.4317C11.66 18.4317 14.0043 17.4608 15.7325 15.7325C17.4608 14.0043 18.4317 11.66 18.4317 9.21586C18.4317 6.7717 17.4608 4.42738 15.7325 2.69918C14.0043 0.970971 11.66 0 9.21586 0V0ZM9.21586 16.896C7.17909 16.896 5.22562 16.0868 3.78535 14.6465C2.34507 13.2062 1.53586 11.2528 1.53586 9.216C1.53586 7.17922 2.34507 5.22576 3.78535 3.78549C5.22562 2.34521 7.17909 1.536 9.21586 1.536C11.2526 1.536 13.2061 2.34521 14.6464 3.78549C16.0867 5.22576 16.8959 7.17922 16.8959 9.216C16.8959 11.2528 16.0867 13.2062 14.6464 14.6465C13.2061 16.0868 11.2526 16.896 9.21586 16.896Z" fill="#BABCC0"/>
<path d="M15.3599 9.21605C15.3599 9.64034 15.0159 9.98398 14.5917 9.98398C14.1676 9.98398 13.8237 9.64032 13.8237 9.21605C13.8237 8.79178 14.1677 8.44812 14.5917 8.44812C15.0159 8.44812 15.3599 8.79178 15.3599 9.21605Z" fill="#BABCC0"/>
<path d="M4.60785 9.21605C4.60785 9.64034 4.26393 9.98398 3.83992 9.98398C3.41564 9.98398 3.07172 9.64032 3.07172 9.21605C3.07172 8.79178 3.41564 8.44812 3.83992 8.44812C4.26394 8.44812 4.60785 8.79178 4.60785 9.21605Z" fill="#BABCC0"/>
<path d="M13.8239 5.37596C13.8239 5.80025 13.4802 6.1439 13.056 6.1439C12.6317 6.1439 12.288 5.80024 12.288 5.37596C12.288 4.95169 12.6317 4.60803 13.056 4.60803C13.4802 4.60803 13.8239 4.95169 13.8239 5.37596Z" fill="#BABCC0"/>
<path d="M6.1439 5.37596C6.1439 5.80025 5.80024 6.1439 5.37596 6.1439C4.95169 6.1439 4.60803 5.80024 4.60803 5.37596C4.60803 4.95169 4.95169 4.60803 5.37596 4.60803C5.80024 4.60803 6.1439 4.95169 6.1439 5.37596Z" fill="#BABCC0"/>
<path d="M9.98386 3.83998C9.98386 4.264 9.6402 4.60791 9.21593 4.60791C8.79166 4.60791 8.448 4.26399 8.448 3.83998C8.448 3.4157 8.79166 3.07178 9.21593 3.07178C9.6402 3.07178 9.98386 3.4157 9.98386 3.83998Z" fill="#BABCC0"/>
<path d="M9.92216 7.37691C9.80136 7.09378 9.52332 6.91003 9.21553 6.91003C8.90774 6.91003 8.62973 7.09378 8.50891 7.37691L6.20477 12.7528H6.20504C6.06736 13.0916 6.18789 13.4805 6.49298 13.6823L6.69656 13.8205C7.44385 14.3214 8.32355 14.5887 9.22328 14.5887C10.123 14.5887 11.0024 14.3214 11.75 13.8205L11.9536 13.6823C12.2584 13.4806 12.3789 13.0916 12.2415 12.7528L9.92216 7.37691ZM7.87921 12.7528L9.21553 9.63092L10.5519 12.745V12.7453C9.71 13.1634 8.72107 13.1634 7.87915 12.7453L7.87921 12.7528Z" fill="#BABCC0"/>
</svg>
