<svg width="14" height="17" viewBox="0 0 14 17" fill="none" xmlns="http://www.w3.org/2000/svg">
<path d="M6.99999 16.998C8.10374 16.998 8.99905 16.1027 8.99905 14.998H5.00093C5.00093 16.1027 5.89624 16.998 6.99999 16.998ZM13.7309 12.3196C13.1272 11.6709 11.9975 10.6949 11.9975 7.49805C11.9975 5.06992 10.295 3.12617 7.99937 2.6493V1.99805C7.99937 1.44586 7.55187 0.998047 6.99999 0.998047C6.44812 0.998047 6.00062 1.44586 6.00062 1.99805V2.6493C3.70499 3.12617 2.00249 5.06992 2.00249 7.49805C2.00249 10.6949 0.872804 11.6709 0.269054 12.3196C0.0815536 12.5212 -0.00157141 12.7621 -8.9117e-06 12.998C0.00342859 13.5105 0.405616 13.998 1.00312 13.998H12.9969C13.5944 13.998 13.9969 13.5105 14 12.998C14.0016 12.7621 13.9184 12.5209 13.7309 12.3196Z" fill="#4A5568"/>
</svg>
