<svg width="26" height="28" viewBox="0 0 26 28" fill="none" xmlns="http://www.w3.org/2000/svg">
<path d="M9.44875 13.525H9.34875C9.27428 13.5125 9.19823 13.5125 9.12375 13.525C5.49875 13.4125 2.76125 10.5625 2.76125 7.05C2.76125 3.475 5.67375 0.5625 9.24875 0.5625C12.8238 0.5625 15.7363 3.475 15.7363 7.05C15.7238 10.5625 12.9738 13.4125 9.48625 13.525H9.44875ZM9.24875 2.4375C8.02646 2.4408 6.85516 2.92782 5.99087 3.79211C5.12657 4.65641 4.63955 5.8277 4.63625 7.05C4.63625 9.55 6.58625 11.5625 9.07375 11.65C9.14875 11.6375 9.31125 11.6375 9.47375 11.65C11.9238 11.5375 13.8488 9.525 13.8613 7.05C13.858 5.8277 13.3709 4.65641 12.5066 3.79211C11.6423 2.92782 10.471 2.4408 9.24875 2.4375ZM18.6725 13.6875C18.635 13.6875 18.5975 13.6875 18.56 13.675C18.0475 13.725 17.5225 13.3625 17.4725 12.85C17.4225 12.3375 17.735 11.875 18.2475 11.8125C18.3975 11.8 18.56 11.8 18.6975 11.8C20.5225 11.7 21.9475 10.2 21.9475 8.3625C21.9475 6.4625 20.41 4.925 18.51 4.925C18.3875 4.92666 18.2659 4.90395 18.1522 4.85821C18.0385 4.81247 17.9351 4.74459 17.8478 4.65853C17.7606 4.57247 17.6914 4.46994 17.6441 4.35689C17.5968 4.24384 17.5725 4.12253 17.5725 4C17.5725 3.4875 17.9975 3.0625 18.51 3.0625C19.918 3.0658 21.2673 3.62657 22.2629 4.62214C23.2584 5.61771 23.8192 6.96705 23.8225 8.375C23.8225 11.25 21.5725 13.575 18.71 13.6875H18.6725ZM9.465 27.1875C7.015 27.1875 4.5525 26.5625 2.69 25.3125C0.952503 24.1625 0.00250244 22.5875 0.00250244 20.875C0.00250244 19.1625 0.952503 17.575 2.69 16.4125C6.44 13.925 12.515 13.925 16.24 16.4125C17.965 17.5625 18.9275 19.1375 18.9275 20.85C18.9275 22.5625 17.9775 24.15 16.24 25.3125C14.365 26.5625 11.915 27.1875 9.465 27.1875ZM3.7275 17.9875C2.5275 18.7875 1.8775 19.8125 1.8775 20.8875C1.8775 21.95 2.54 22.975 3.7275 23.7625C6.84 25.85 12.09 25.85 15.2025 23.7625C16.4025 22.9625 17.0525 21.9375 17.0525 20.8625C17.0525 19.8 16.39 18.775 15.2025 17.9875C12.09 15.9125 6.84 15.9125 3.7275 17.9875ZM20.9225 24.9375C20.485 24.9375 20.0975 24.6375 20.01 24.1875C19.9616 23.9441 20.0104 23.6914 20.1459 23.4835C20.2813 23.2756 20.4928 23.129 20.735 23.075C21.5225 22.9125 22.2475 22.6 22.81 22.1625C23.5225 21.625 23.91 20.95 23.91 20.2375C23.91 19.525 23.5225 18.85 22.8225 18.325C22.2725 17.9 21.585 17.6 20.7725 17.4125C20.5293 17.357 20.3179 17.2076 20.1844 16.9968C20.051 16.7861 20.0062 16.5311 20.06 16.2875C20.1725 15.7875 20.6725 15.4625 21.185 15.575C22.26 15.8125 23.1975 16.2375 23.96 16.825C25.1225 17.7 25.785 18.9375 25.785 20.2375C25.785 21.5375 25.11 22.775 23.9475 23.6625C23.1725 24.2625 22.1975 24.7 21.1225 24.9125C21.0475 24.9375 20.985 24.9375 20.9225 24.9375Z" fill="white"/>
</svg>
