<svg width="30" height="30" viewBox="0 0 30 30" fill="none" xmlns="http://www.w3.org/2000/svg">
<path d="M22.9 15.9376H18.75C15.6375 15.9376 14.0625 14.1751 14.0625 10.6876V7.10007C14.0625 5.82507 14.2125 4.00007 15.5375 3.00007C16.65 2.17507 18.25 2.11257 20.6125 2.80007C23.7125 3.70007 26.3 6.28757 27.2 9.38757C27.8875 11.7376 27.825 13.3501 27 14.4501C26 15.7876 24.175 15.9376 22.9 15.9376ZM17.85 4.20007C17.3375 4.20007 16.9375 4.30007 16.675 4.50007C16.1875 4.86257 15.95 5.71257 15.95 7.10007V10.7001C15.95 13.5001 17.025 14.0751 18.7625 14.0751H22.9125C24.2875 14.0751 25.1375 13.8376 25.5125 13.3501C25.95 12.7751 25.9125 11.6251 25.425 9.93757C24.7 7.47507 22.575 5.33757 20.1125 4.62507C19.1875 4.33757 18.4375 4.20007 17.85 4.20007Z" fill="white"/>
<path d="M13.8375 28.435C13.175 28.435 12.5 28.385 11.825 28.2725C6.71251 27.4475 2.55001 23.2975 1.72501 18.185C0.662506 11.61 4.90001 5.40997 11.3875 4.08497C11.9 3.98497 12.3875 4.30997 12.5 4.80997C12.6 5.32247 12.275 5.80997 11.775 5.92247C6.28751 7.04747 2.68751 12.2975 3.60001 17.885C4.30001 22.21 7.81251 25.7225 12.1375 26.4225C17.75 27.3225 22.9875 23.71 24.1 18.1975C24.1187 18.072 24.1626 17.9517 24.2291 17.8437C24.2956 17.7357 24.3834 17.6423 24.487 17.5692C24.5907 17.4961 24.7081 17.4448 24.8321 17.4184C24.9562 17.392 25.0843 17.391 25.2088 17.4156C25.3332 17.4401 25.4514 17.4897 25.5561 17.5612C25.6608 17.6328 25.75 17.7248 25.8181 17.8318C25.8862 17.9388 25.9319 18.0585 25.9524 18.1836C25.973 18.3088 25.9679 18.4368 25.9375 18.56C25.3733 21.3511 23.8593 23.8605 21.6531 25.6609C19.447 27.4614 16.6851 28.4417 13.8375 28.435Z" fill="white"/>
</svg>
