<svg width="30" height="30" viewBox="0 0 30 30" fill="none" xmlns="http://www.w3.org/2000/svg">
<path d="M22.625 22.1875H7.375C4.475 22.1875 2.8125 20.525 2.8125 17.625V2.5C2.8125 1.9875 3.2375 1.5625 3.75 1.5625H26.25C26.7625 1.5625 27.1875 1.9875 27.1875 2.5V17.625C27.1875 20.525 25.525 22.1875 22.625 22.1875ZM4.6875 3.4375V17.625C4.6875 19.4875 5.5125 20.3125 7.375 20.3125H22.6125C24.475 20.3125 25.3 19.4875 25.3 17.625V3.4375H4.6875Z" fill="white"/>
<path d="M27.5 3.4375H2.5C1.9875 3.4375 1.5625 3.0125 1.5625 2.5C1.5625 1.9875 1.9875 1.5625 2.5 1.5625H27.5C28.0125 1.5625 28.4375 1.9875 28.4375 2.5C28.4375 3.0125 28.0125 3.4375 27.5 3.4375ZM10 28.4375C9.65 28.4375 9.325 28.25 9.1625 27.925C9.10605 27.8145 9.07226 27.6938 9.06311 27.57C9.05397 27.4463 9.06965 27.3219 9.10924 27.2043C9.14884 27.0867 9.21154 26.9781 9.29367 26.8851C9.3758 26.7921 9.4757 26.7164 9.5875 26.6625L14.0625 24.425V21.25C14.0625 20.7375 14.4875 20.3125 15 20.3125C15.5125 20.3125 15.9375 20.7375 15.9375 21.25V25C15.9375 25.35 15.7375 25.675 15.4125 25.8375L10.4125 28.3375C10.2875 28.4 10.1375 28.4375 10 28.4375Z" fill="white"/>
<path d="M20 28.4349C19.8625 28.4349 19.7125 28.3974 19.5875 28.3349L14.5875 25.8349C14.3659 25.7215 14.1975 25.526 14.1181 25.2901C14.0387 25.0542 14.0546 24.7966 14.1625 24.5724C14.4 24.1099 14.9625 23.9224 15.425 24.1474L20.425 26.6474C20.8875 26.8849 21.075 27.4473 20.85 27.9099C20.7699 28.0668 20.6483 28.1987 20.4985 28.2913C20.3486 28.3838 20.1762 28.4335 20 28.4349ZM9.375 14.6874C9.18121 14.6885 8.99183 14.6296 8.8329 14.5187C8.67397 14.4078 8.55331 14.2504 8.48753 14.0681C8.42174 13.8858 8.41406 13.6876 8.46554 13.5008C8.51702 13.314 8.62513 13.1477 8.775 13.0249L12.7125 9.73735C13.075 9.43735 13.5375 9.31235 13.975 9.38735C14.425 9.46235 14.8125 9.73735 15.05 10.1374L16.3625 12.3249L20.025 9.27485C20.425 8.94985 21.0125 8.99985 21.35 9.39985C21.6875 9.79985 21.625 10.3874 21.225 10.7249L17.2875 14.0124C16.925 14.3124 16.4625 14.4374 16.025 14.3624C15.575 14.2874 15.1875 14.0124 14.95 13.6124L13.6375 11.4249L9.975 14.4749C9.8 14.6124 9.5875 14.6874 9.375 14.6874Z" fill="white"/>
</svg>
