<svg width="18" height="18" viewBox="0 0 18 18" fill="none" xmlns="http://www.w3.org/2000/svg">
<path d="M9 12.3333H9.83333C10.3889 12.3333 11.5 12 11.5 10.6667C11.5 9.33333 10.3889 9 9.83333 9H8.16667C7.61111 9 6.5 8.66667 6.5 7.33333C6.5 6 7.61111 5.66667 8.16667 5.66667H9M9 12.3333H6.5M9 12.3333V14M11.5 5.66667H9M9 5.66667V4M16.5 9C16.5 13.1421 13.1421 16.5 9 16.5C4.85786 16.5 1.5 13.1421 1.5 9C1.5 4.85786 4.85786 1.5 9 1.5C13.1421 1.5 16.5 4.85786 16.5 9Z" stroke="#BABCC0" stroke-width="1.5" stroke-linecap="round" stroke-linejoin="round"/>
</svg>
