<svg width="22" height="22" viewBox="0 0 22 22" fill="none" xmlns="http://www.w3.org/2000/svg">
<path d="M8.25004 20.1667H13.75C18.3334 20.1667 20.1667 18.3334 20.1667 13.75V8.25004C20.1667 3.66671 18.3334 1.83337 13.75 1.83337H8.25004C3.66671 1.83337 1.83337 3.66671 1.83337 8.25004V13.75C1.83337 18.3334 3.66671 20.1667 8.25004 20.1667Z" stroke="white" stroke-width="1.5" stroke-linecap="round" stroke-linejoin="round"/>
<path d="M14.2084 16.9583C15.2167 16.9583 16.0417 16.1333 16.0417 15.125V6.87496C16.0417 5.86663 15.2167 5.04163 14.2084 5.04163C13.2 5.04163 12.375 5.86663 12.375 6.87496V15.125C12.375 15.6112 12.5682 16.0775 12.912 16.4213C13.2558 16.7651 13.7221 16.9583 14.2084 16.9583ZM7.79171 16.9583C8.80004 16.9583 9.62504 16.1333 9.62504 15.125V11.9166C9.62504 10.9083 8.80004 10.0833 7.79171 10.0833C6.78337 10.0833 5.95837 10.9083 5.95837 11.9166V15.125C5.95837 15.6112 6.15153 16.0775 6.49534 16.4213C6.83916 16.7651 7.30548 16.9583 7.79171 16.9583Z" stroke="white" stroke-width="1.5" stroke-linecap="round" stroke-linejoin="round"/>
</svg>
