<svg width="8" height="9" viewBox="0 0 8 9" fill="none" xmlns="http://www.w3.org/2000/svg">
<path d="M6.27744 5.73633C6.39202 5.73633 6.5014 5.75716 6.60557 5.79883C6.70973 5.84049 6.80348 5.90299 6.88682 5.98633L7.74619 6.8457C7.82692 6.92643 7.88812 7.01888 7.92979 7.12305C7.97145 7.22721 7.99359 7.33789 7.99619 7.45508C7.99619 7.56966 7.97536 7.67904 7.93369 7.7832C7.89202 7.88737 7.82952 7.98112 7.74619 8.06445L7.6915 8.11914C7.55088 8.25977 7.42197 8.38477 7.30479 8.49414C7.1876 8.60352 7.0652 8.69466 6.9376 8.76758C6.80999 8.84049 6.66807 8.89779 6.51182 8.93945C6.35557 8.98112 6.16937 9.00065 5.95322 8.99805C5.6277 8.99805 5.29307 8.94727 4.94932 8.8457C4.60557 8.74414 4.26442 8.60352 3.92588 8.42383C3.58734 8.24414 3.254 8.0306 2.92588 7.7832C2.59775 7.53581 2.28916 7.26628 2.0001 6.97461C1.71104 6.68294 1.44281 6.37305 1.19541 6.04492C0.948014 5.7168 0.737077 5.38346 0.562598 5.04492C0.388118 4.70638 0.250098 4.36654 0.148535 4.02539C0.0469727 3.68424 -0.00250651 3.35612 9.76563e-05 3.04102C9.76563e-05 2.82487 0.0183268 2.63997 0.0547852 2.48633C0.0912435 2.33268 0.147233 2.19206 0.222754 2.06445C0.298275 1.93685 0.389421 1.81576 0.496191 1.70117C0.602962 1.58659 0.727962 1.45768 0.871191 1.31445L0.933691 1.25195C1.01442 1.17122 1.10687 1.10872 1.21104 1.06445C1.3152 1.02018 1.42588 0.998047 1.54307 0.998047C1.65765 0.998047 1.76702 1.02018 1.87119 1.06445C1.97536 1.10872 2.06911 1.17122 2.15244 1.25195L3.01182 2.11133C3.09255 2.19206 3.15374 2.28451 3.19541 2.38867C3.23708 2.49284 3.25921 2.60352 3.26182 2.7207C3.26182 2.83529 3.24229 2.93685 3.20322 3.02539C3.16416 3.11393 3.11598 3.19596 3.05869 3.27148C3.0014 3.34701 2.9389 3.41341 2.87119 3.4707C2.80348 3.52799 2.73968 3.58659 2.67979 3.64648C2.61989 3.70638 2.57171 3.76367 2.53525 3.81836C2.4988 3.87305 2.47926 3.93685 2.47666 4.00977C2.47666 4.10872 2.51182 4.19336 2.58213 4.26367L4.73447 6.41602C4.80479 6.48633 4.88942 6.52148 4.98838 6.52148C5.05609 6.52148 5.11859 6.50195 5.17588 6.46289C5.23317 6.42383 5.29176 6.37565 5.35166 6.31836C5.41156 6.26107 5.47015 6.19857 5.52744 6.13086C5.58473 6.06315 5.65114 5.99935 5.72666 5.93945C5.80218 5.87956 5.88291 5.83138 5.96885 5.79492C6.05479 5.75846 6.15765 5.73893 6.27744 5.73633ZM5.95322 8.49805C6.14072 8.49805 6.29697 8.48112 6.42197 8.44727C6.54697 8.41341 6.66156 8.36263 6.76572 8.29492C6.86989 8.22721 6.96885 8.14388 7.0626 8.04492C7.15635 7.94596 7.26702 7.83398 7.39463 7.70898C7.46494 7.63867 7.5001 7.55404 7.5001 7.45508C7.5001 7.4082 7.48187 7.35352 7.44541 7.29102C7.40895 7.22852 7.35947 7.16081 7.29697 7.08789C7.23447 7.01497 7.16807 6.94336 7.09775 6.87305C7.02744 6.80273 6.95452 6.73242 6.879 6.66211C6.80348 6.5918 6.73708 6.5306 6.67979 6.47852C6.62249 6.42643 6.57432 6.38086 6.53525 6.3418C6.46494 6.27148 6.379 6.23633 6.27744 6.23633C6.20973 6.23633 6.14723 6.25586 6.08994 6.29492C6.03265 6.33398 5.97536 6.38216 5.91807 6.43945C5.86077 6.49674 5.80218 6.55924 5.74229 6.62695C5.68239 6.69466 5.61468 6.75846 5.53916 6.81836C5.46364 6.87826 5.38291 6.92643 5.29697 6.96289C5.21104 6.99935 5.10817 7.01888 4.98838 7.02148C4.8738 7.02148 4.76442 7.00065 4.66025 6.95898C4.55609 6.91732 4.46234 6.85482 4.379 6.77148L2.22666 4.61914C2.14593 4.53841 2.08473 4.44596 2.04307 4.3418C2.0014 4.23763 1.97926 4.12695 1.97666 4.00977C1.97666 3.89518 1.99619 3.79362 2.03525 3.70508C2.07432 3.61654 2.12249 3.53451 2.17979 3.45898C2.23708 3.38346 2.29958 3.31706 2.36729 3.25977C2.43499 3.20247 2.4988 3.14258 2.55869 3.08008C2.61859 3.01758 2.66676 2.96029 2.70322 2.9082C2.73968 2.85612 2.75921 2.79362 2.76182 2.7207C2.76182 2.61914 2.72666 2.5332 2.65635 2.46289C2.62249 2.42904 2.57822 2.38216 2.52354 2.32227C2.46885 2.26237 2.40765 2.19596 2.33994 2.12305C2.27223 2.05013 2.20192 1.97721 2.129 1.9043C2.05609 1.83138 1.98317 1.76367 1.91025 1.70117C1.83734 1.63867 1.77093 1.59049 1.71104 1.55664C1.65114 1.52279 1.59515 1.50326 1.54307 1.49805C1.44411 1.49805 1.35947 1.5332 1.28916 1.60352L0.957129 1.93555C0.860775 2.0319 0.777441 2.13086 0.707129 2.23242C0.636816 2.33398 0.584733 2.44727 0.550879 2.57227C0.517025 2.69727 0.498796 2.85352 0.496191 3.04102C0.496191 3.33268 0.543066 3.63346 0.636816 3.94336C0.730566 4.25326 0.862077 4.56315 1.03135 4.87305C1.20062 5.18294 1.39984 5.48763 1.629 5.78711C1.85817 6.08659 2.10817 6.37174 2.379 6.64258C2.64984 6.91341 2.93499 7.16081 3.23447 7.38477C3.53395 7.60872 3.83864 7.80404 4.14854 7.9707C4.45843 8.13737 4.76572 8.26628 5.07041 8.35742C5.3751 8.44857 5.66937 8.49544 5.95322 8.49805Z" fill="white"/>
</svg>
