<svg width="20" height="14" viewBox="0 0 20 14" fill="none" xmlns="http://www.w3.org/2000/svg">
<path d="M15.8333 8.66663C17.6743 8.66663 19.1666 10.3333 19.1666 11.5833C19.1666 12.2736 18.607 12.8333 17.9166 12.8333H17.5M14.1666 6.16663C15.5474 6.16663 16.6666 5.04734 16.6666 3.66663C16.6666 2.28591 15.5474 1.16663 14.1666 1.16663M4.16665 8.66663C2.3257 8.66663 0.833313 10.3333 0.833313 11.5833C0.833313 12.2736 1.39296 12.8333 2.08331 12.8333H2.49998M5.83331 6.16663C4.4526 6.16663 3.33331 5.04734 3.33331 3.66663C3.33331 2.28591 4.4526 1.16663 5.83331 1.16663M13.75 12.8333H6.24998C5.55962 12.8333 4.99998 12.2736 4.99998 11.5833C4.99998 9.49996 7.49998 8.66663 9.99998 8.66663C12.5 8.66663 15 9.49996 15 11.5833C15 12.2736 14.4403 12.8333 13.75 12.8333ZM12.5 3.66663C12.5 5.04734 11.3807 6.16663 9.99998 6.16663C8.61927 6.16663 7.49998 5.04734 7.49998 3.66663C7.49998 2.28591 8.61927 1.16663 9.99998 1.16663C11.3807 1.16663 12.5 2.28591 12.5 3.66663Z" stroke="#C2CBCF" stroke-width="1.5" stroke-linecap="round" stroke-linejoin="round"/>
</svg>
