<svg width="19" height="22" viewBox="0 0 19 22" fill="none" xmlns="http://www.w3.org/2000/svg">
<path d="M9.37746 21.1755C8.98875 21.1782 8.60873 21.0672 8.28998 20.8578L0.790138 15.8814C0.385919 15.6115 0.111669 15.202 0.0273463 14.7424C-0.0569768 14.2827 0.0554855 13.8103 0.340147 13.4285C0.482243 13.2377 0.663098 13.0752 0.872271 12.9505C1.08144 12.8258 1.31479 12.7413 1.55884 12.7019C1.8029 12.6625 2.05282 12.669 2.29418 12.7211C2.53554 12.7731 2.76357 12.8696 2.96509 13.005L9.37746 17.2226L15.7523 12.705C16.1501 12.4242 16.6502 12.3036 17.1425 12.3698C17.6347 12.436 18.0789 12.6835 18.3773 13.0579C18.6756 13.4323 18.8037 13.903 18.7334 14.3663C18.6631 14.8296 18.4001 15.2477 18.0023 15.5285L10.5024 20.8225C10.1779 21.0516 9.78315 21.1755 9.37746 21.1755Z" fill="white"/>
<path d="M9.37847 17.6468C8.8812 17.6468 8.4043 17.4609 8.05267 17.1299C7.70105 16.799 7.50351 16.3501 7.50351 15.8821V1.76468C7.50351 1.29666 7.70105 0.847805 8.05267 0.516863C8.4043 0.185921 8.8812 0 9.37847 0C9.87574 0 10.3526 0.185921 10.7043 0.516863C11.0559 0.847805 11.2534 1.29666 11.2534 1.76468V15.8821C11.2534 16.3501 11.0559 16.799 10.7043 17.1299C10.3526 17.4609 9.87574 17.6468 9.37847 17.6468Z" fill="white"/>
</svg>
